<?xml version="1.0" encoding="UTF-8"?>
<svg id="Layer_1" xmlns="http://www.w3.org/2000/svg" xmlns:xlink="http://www.w3.org/1999/xlink" viewBox="0 0 24 24">
  <defs>
    <style>
      .cls-1 {
        fill: none;
      }

      .cls-2 {
        clip-path: url(#clippath);
      }
    </style>
    <clipPath id="clippath">
      <rect class="cls-1" x="0" y="0" width="24" height="24"/>
    </clipPath>
  </defs>
  <g class="cls-2">
    <g>
      <path d="M4,8.25h16s.02,0,.03,0c.32,0,.64-.13.87-.36.23-.23.36-.54.36-.87,0-.69-.56-1.26-1.25-1.27H4.01c-.33,0-.66.12-.9.36-.23.23-.36.54-.36.87,0,.69.56,1.26,1.25,1.27Z"/>
      <path d="M20,15.75H4c-.69,0-1.25.56-1.25,1.25s.56,1.25,1.25,1.25h16c.69,0,1.25-.56,1.25-1.25s-.56-1.25-1.25-1.25Z"/>
      <path d="M20,10.75H4c-.69,0-1.25.56-1.25,1.25s.56,1.25,1.25,1.25h16c.69,0,1.25-.56,1.25-1.25s-.56-1.25-1.25-1.25Z"/>
    </g>
  </g>
</svg>